<?xml version="1.0" encoding="UTF-8"?>
<svg id="_图层_1" data-name=" 图层 1" xmlns="http://www.w3.org/2000/svg" viewBox="0 0 223.73 80">
  <defs>
    <style>
      .cls-1 {
        fill: #1b1a19;
      }

      .cls-1, .cls-2, .cls-3 {
        stroke-width: 0px;
      }

      .cls-2 {
        fill: #0f2db3;
      }

      .cls-3 {
        fill: #fff;
      }
    </style>
  </defs>
  <path class="cls-3" d="M192.57,55.22c-1.66,0-1.8,1.68-1.8,1.68h-.79v-2.5h6.19s.05,1.93-1.78,3.98c0,0-1.74,2.03-1.79,2.91h1c1.44,0,1.59-1.68,1.59-1.68h.83v2.5h-6.33s-.23-1.9,1.97-4.2c0,0,1.35-1.51,1.66-2.7h-.75Z"/>
  <path class="cls-3" d="M208.35,62.11v-.82h-.19c-.34,0-.62-.28-.62-.62v-4.83c0-.34.28-.62.62-.62h.19v-.82h-4.1v.82h.19c.35,0,.62.28.62.62v4.83c0,.34-.28.62-.62.62h-.19v.82s4.1,0,4.1,0Z"/>
  <path class="cls-3" d="M203.39,62.12v-2.5h-.83s-.15,1.68-1.6,1.68h-.83v-2.63h.3c.35,0,.62.28.62.62v.31h.82v-2.7h-.82v.31c0,.35-.28.62-.62.62h-.3v-2.63h.83c1.44,0,1.6,1.68,1.6,1.68h.83v-2.5h-6.53v.82h.19c.34,0,.62.28.62.62v4.83c0,.34-.28.62-.62.62h-.19v.82h6.53v.03Z"/>
  <path class="cls-3" d="M212.66,55.22c1.66,0,1.79,1.68,1.79,1.68h.8v-2.5h-5.92s-.94,1.23,1.51,3.98c0,0,1.74,2.03,1.78,2.91h-1c-1.44,0-1.6-1.68-1.6-1.68h-.83v2.5h5.97s1.08-1.17-1.6-4.2c0,0-1.41-1.45-1.66-2.7h.76Z"/>
  <path class="cls-3" d="M219.59,55.22c1.66,0,1.8,1.68,1.8,1.68h.79v-2.5h-5.91s-.94,1.23,1.51,3.98c0,0,1.74,2.03,1.78,2.91h-1c-1.44,0-1.6-1.68-1.6-1.68h-.83v2.5h5.97s1.08-1.17-1.6-4.2c0,0-1.41-1.45-1.66-2.7h.75Z"/>
  <path class="cls-1" d="M9.07,60.37c-.62.12-1.28.18-1.98.18-.88,0-1.68-.13-2.42-.38-.73-.25-1.32-.65-1.76-1.19-.44-.54-.67-1.23-.67-2.06s.22-1.49.64-2.03c.43-.55,1-.95,1.73-1.22.72-.26,1.53-.4,2.41-.4.68,0,1.33.06,1.94.18s1.17.3,1.69.56l.83-1.6c-.62-.31-1.32-.54-2.07-.69-.76-.16-1.54-.23-2.35-.23-1.27,0-2.44.2-3.52.61-1.07.4-1.93,1.02-2.58,1.84C.33,54.76,0,55.76,0,56.95s.33,2.2.98,3.02c.66.82,1.52,1.42,2.59,1.82,1.07.39,2.24.59,3.51.59.91,0,1.75-.08,2.53-.25.78-.16,1.48-.41,2.09-.73l-.85-1.6c-.57.26-1.17.45-1.79.57"/>
  <path class="cls-1" d="M20.58,54.86c-.8-.32-1.77-.48-2.9-.48s-2.08.16-2.89.48c-.8.32-1.42.78-1.84,1.38-.42.6-.64,1.31-.64,2.14s.21,1.53.64,2.13c.42.6,1.04,1.06,1.84,1.39.81.32,1.77.48,2.89.48s2.08-.16,2.88-.48c.8-.32,1.41-.78,1.83-1.39.42-.6.63-1.31.63-2.13s-.21-1.54-.62-2.14c-.42-.6-1.02-1.06-1.82-1.38M20.46,59.64c-.25.36-.6.63-1.07.82s-1.04.29-1.71.29-1.23-.1-1.71-.29c-.48-.19-.84-.47-1.09-.82-.25-.36-.37-.78-.37-1.26s.13-.91.37-1.27c.25-.36.61-.63,1.09-.82s1.05-.29,1.71-.29,1.23.1,1.71.29c.47.19.83.47,1.08.82.24.36.37.78.37,1.27s-.12.9-.37,1.26"/>
  <rect class="cls-1" x="24.48" y="57.09" width="4.73" height="1.73"/>
  <path class="cls-1" d="M38.17,54.82c-.69-.3-1.51-.45-2.47-.45-1.02,0-1.9.17-2.66.5s-1.35.8-1.76,1.4c-.41.6-.61,1.3-.61,2.1,0,.87.21,1.6.62,2.2.42.6,1.02,1.05,1.82,1.35s1.78.45,2.94.45c.75,0,1.48-.06,2.18-.18s1.35-.29,1.95-.51l-.47-1.46c-.62.17-1.22.3-1.78.39-.56.09-1.14.13-1.72.13-.8,0-1.45-.08-1.95-.23-.5-.15-.87-.4-1.12-.75-.15-.21-.24-.47-.3-.77h7.4c.05-.22.07-.46.07-.71,0-.85-.19-1.56-.55-2.14-.37-.58-.9-1.02-1.6-1.32M32.87,57.58c.05-.21.13-.41.23-.58.22-.37.54-.64.97-.81.42-.17.95-.26,1.59-.26.56,0,1.02.07,1.39.22.37.14.65.34.83.59s.27.53.28.85h-5.29Z"/>
  <path class="cls-1" d="M49.56,54.77c-.64-.26-1.36-.39-2.17-.39s-1.56.14-2.21.43c-.63.27-1.12.66-1.47,1.15l-.05-1.41h-2.04v7.66h2.17v-4.16c.02-.37.14-.71.39-1,.27-.32.64-.57,1.11-.76s.99-.28,1.55-.28c.82,0,1.46.2,1.93.59s.7.97.7,1.73v3.87h2.17v-4.32c0-.77-.19-1.42-.56-1.94-.37-.53-.88-.92-1.51-1.18"/>
  <path class="cls-1" d="M61.17,55.77c-.18-.22-.39-.43-.66-.61-.39-.26-.84-.45-1.34-.58-.5-.12-1.01-.19-1.55-.19-.81,0-1.57.14-2.3.41-.72.27-1.31.7-1.76,1.28-.45.58-.67,1.28-.67,2.11s.21,1.55.64,2.12.99,1.01,1.7,1.31c.7.29,1.49.44,2.35.44.59,0,1.14-.07,1.65-.22.51-.14.96-.35,1.34-.61.21-.15.39-.31.54-.48v.47c0,.59-.16,1.07-.47,1.45-.32.38-.73.66-1.25.85-.52.18-1.09.27-1.71.27-.72,0-1.4-.08-2.04-.25-.64-.16-1.21-.42-1.71-.77l-.6,1.45c.49.37,1.1.64,1.83.83.73.19,1.5.28,2.31.28.99,0,1.92-.15,2.77-.45.85-.3,1.54-.78,2.07-1.44s.8-1.51.8-2.54v-6.37h-1.86l-.06,1.22s-.02.02-.02.02ZM60.8,59.43c-.23.34-.58.61-1.05.81-.47.2-1.04.3-1.73.3-.62,0-1.16-.09-1.6-.27-.45-.18-.78-.45-1.02-.8s-.35-.76-.35-1.23.12-.91.37-1.26c.24-.35.59-.61,1.03-.79s.97-.27,1.57-.27c.67,0,1.23.1,1.7.29.47.19.82.45,1.06.79.24.33.36.71.36,1.13v.16c0,.42-.11.81-.34,1.15"/>
  <rect class="cls-1" x="65.14" y="54.55" width="2.17" height="7.66"/>
  <path class="cls-1" d="M66.18,51.18c-.35,0-.65.12-.88.36-.24.23-.36.53-.36.9s.12.64.36.88.53.35.88.35.67-.12.92-.35c.25-.24.37-.53.37-.88s-.13-.65-.37-.9c-.25-.24-.56-.36-.92-.36"/>
  <path class="cls-1" d="M77.16,54.77c-.64-.26-1.36-.39-2.17-.39s-1.56.14-2.21.43c-.63.27-1.12.66-1.47,1.15l-.05-1.41h-2.04v7.66h2.17v-4.16c.02-.37.14-.71.39-1,.27-.32.64-.57,1.11-.76s.99-.28,1.55-.28c.82,0,1.46.2,1.93.59s.7.97.7,1.73v3.87h2.17v-4.32c0-.77-.19-1.42-.56-1.94-.37-.53-.88-.92-1.51-1.18"/>
  <path class="cls-1" d="M88,54.82c-.69-.3-1.52-.45-2.47-.45-1.02,0-1.9.17-2.66.5s-1.35.8-1.76,1.4c-.41.6-.61,1.3-.61,2.1,0,.87.21,1.6.62,2.2.42.6,1.02,1.05,1.82,1.35s1.78.45,2.94.45c.75,0,1.48-.06,2.18-.18s1.35-.29,1.95-.51l-.47-1.46c-.62.17-1.22.3-1.78.39s-1.14.13-1.72.13c-.8,0-1.45-.08-1.95-.23-.5-.15-.87-.4-1.12-.75-.15-.21-.24-.47-.3-.77h7.4c.05-.22.07-.46.07-.71,0-.85-.19-1.56-.55-2.14-.37-.58-.9-1.02-1.6-1.32M82.7,57.58c.05-.21.13-.41.23-.58.22-.37.54-.64.97-.81.42-.17.95-.26,1.59-.26.56,0,1.02.07,1.39.22.37.14.65.34.83.59s.27.53.28.85h-5.29Z"/>
  <path class="cls-1" d="M98.59,54.82c-.69-.3-1.51-.45-2.47-.45-1.02,0-1.9.17-2.66.5s-1.35.8-1.76,1.4c-.41.6-.61,1.3-.61,2.1,0,.87.21,1.6.62,2.2.42.6,1.02,1.05,1.82,1.35s1.78.45,2.94.45c.75,0,1.48-.06,2.18-.18s1.35-.29,1.95-.51l-.47-1.46c-.62.17-1.22.3-1.78.39s-1.14.13-1.72.13c-.8,0-1.45-.08-1.95-.23-.5-.15-.87-.4-1.12-.75-.15-.21-.24-.47-.3-.77h7.4c.05-.22.07-.46.07-.71,0-.85-.19-1.56-.55-2.14-.37-.58-.9-1.02-1.6-1.32M93.29,57.58c.05-.21.13-.41.23-.58.22-.37.54-.64.97-.81.42-.17.95-.26,1.59-.26.56,0,1.02.07,1.39.22.37.14.65.34.83.59s.27.53.28.85h-5.29Z"/>
  <path class="cls-1" d="M105.3,54.89c-.56.31-.93.79-1.17,1.39l-.04-1.73h-2.04v7.66h2.17v-3.83c.02-.48.13-.88.37-1.19.26-.34.59-.58.99-.72s.85-.22,1.33-.22c.53,0,1.01.07,1.45.2l.33-1.85c-.35-.15-.8-.22-1.36-.22-.74,0-1.42.17-2.03.51"/>
  <path class="cls-1" d="M116.54,54.82c-.69-.3-1.51-.45-2.47-.45-1.02,0-1.9.17-2.66.5s-1.35.8-1.76,1.4c-.41.6-.61,1.3-.61,2.1,0,.87.21,1.6.62,2.2.42.6,1.02,1.05,1.82,1.35s1.78.45,2.94.45c.75,0,1.48-.06,2.18-.18s1.35-.29,1.95-.51l-.47-1.46c-.62.17-1.22.3-1.78.39s-1.14.13-1.72.13c-.8,0-1.45-.08-1.95-.23-.5-.15-.87-.4-1.12-.75-.15-.21-.24-.47-.3-.77h7.4c.05-.22.07-.46.07-.71,0-.85-.19-1.56-.55-2.14-.37-.58-.9-1.02-1.6-1.32M111.23,57.58c.05-.21.13-.41.23-.58.22-.37.54-.64.97-.81.42-.17.95-.26,1.59-.26.56,0,1.02.07,1.39.22.37.14.65.34.83.59s.27.53.28.85h-5.29Z"/>
  <path class="cls-1" d="M127.94,55.66c-.16-.18-.34-.34-.56-.48-.41-.26-.86-.46-1.36-.6-.5-.13-1.03-.2-1.57-.2-.83,0-1.61.15-2.34.43-.73.29-1.33.73-1.79,1.33-.46.6-.69,1.34-.69,2.21s.22,1.6.65,2.21,1.01,1.06,1.73,1.37c.72.3,1.52.45,2.39.45.59,0,1.15-.07,1.68-.22.52-.15.98-.36,1.36-.64.26-.19.47-.4.64-.63l.1,1.32h1.92v-10.98h-2.15v4.43h-.01ZM127.67,59.63c-.23.35-.59.63-1.06.84s-1.06.31-1.75.31c-.64,0-1.18-.1-1.64-.29-.46-.19-.81-.47-1.04-.83s-.35-.79-.35-1.28.12-.94.37-1.3c.24-.36.59-.63,1.05-.82.46-.19.99-.28,1.6-.28.68,0,1.26.1,1.74.3.48.2.84.47,1.07.82.24.35.36.74.36,1.19v.16c0,.44-.12.84-.35,1.19"/>
  <path class="cls-1" d="M147.11,57.96l-.22.65c-.18.51-.33.97-.47,1.39-.04.11-.07.22-.11.33-.08-.22-.16-.44-.26-.69-.27-.69-.51-1.32-.74-1.88l-1.33-3.21h-2.03l-1.26,3.15c-.16.39-.31.79-.47,1.18-.21.53-.39.99-.54,1.39-.08-.25-.14-.48-.23-.74-.19-.6-.38-1.15-.56-1.65l-1.26-3.34h-2.21l3,7.66h2.28l1.4-3.37c.13-.34.32-.89.59-1.65.1-.24.18-.45.27-.67.04.12.07.22.12.34.28.77.54,1.45.78,2.02l1.35,3.32h2.34l3-7.66h-2.21l-1.21,3.41-.02.02h0Z"/>
  <path class="cls-1" d="M152.9,51.18c-.35,0-.65.12-.88.36-.24.23-.36.53-.36.9s.12.64.36.88.53.35.88.35.67-.12.92-.35c.25-.24.37-.53.37-.88s-.13-.65-.37-.9c-.25-.24-.56-.36-.92-.36"/>
  <rect class="cls-1" x="151.86" y="54.55" width="2.17" height="7.66"/>
  <path class="cls-1" d="M161.72,60.52c-.33.05-.64.08-.93.08-.55,0-.99-.11-1.33-.33-.33-.22-.5-.58-.5-1.07v-3.15h3.63v-1.5h-3.63v-2.06h-2.11v2.06h-1.61v1.5h1.61v3.45c0,.99.35,1.72,1.04,2.18.69.46,1.54.69,2.55.69.44,0,.88-.04,1.32-.11s.85-.18,1.23-.33l-.35-1.65c-.28.1-.59.17-.92.22"/>
  <path class="cls-1" d="M173.61,55.94c-.37-.53-.88-.92-1.51-1.18-.64-.26-1.36-.39-2.16-.39s-1.56.14-2.22.43c-.64.28-1.13.67-1.47,1.16v-4.73h-2.09v5.14h0v5.84h2.15v-4.07c0-.41.13-.77.4-1.08.27-.32.63-.57,1.1-.76.46-.19.98-.28,1.56-.28.81,0,1.45.2,1.92.59s.71.97.71,1.73v3.87h2.15v-4.32c0-.77-.19-1.42-.56-1.94"/>
  <path class="cls-1" d="M29.11,13.8c-.35.78-.69,1.49-1.03,2.11-1.1,2.35-2.2,4.69-3.31,7.02-.9,1.88-1.87,3.98-2.9,6.26-1.22-2.82-2.3-5.2-3.21-7.09-1.08-2.25-2.43-5.02-4.06-8.31L8.03.56H0l17.42,34.27h8.83L43.33.56h-7.79l-6.43,13.24Z"/>
  <path class="cls-1" d="M70.82,13.08c-2.21-.83-4.61-1.25-7.21-1.25-2.16,0-4.14.2-5.94.61s-3.34,1.02-4.62,1.83l.7-7.98,22.16.05V.56h-27.79l-1.36,18.22,5.21,1.69c1.28-.91,2.83-1.66,4.63-2.25s3.73-.89,5.8-.89c1.69,0,3.18.23,4.48.68s2.31,1.12,3.03,2,1.08,1.92,1.08,3.15c0,1.31-.35,2.44-1.06,3.38-.7.94-1.77,1.66-3.19,2.16-1.42.5-3.15.75-5.19.75-2.6,0-5.01-.27-7.23-.8-2.22-.53-4.29-1.27-6.2-2.2l-2.49,5.3c1.75,1.1,3.98,1.98,6.67,2.65,2.69.67,5.7,1.01,9.01,1.01s6.2-.46,8.73-1.38c2.53-.92,4.53-2.32,5.99-4.18,1.45-1.86,2.18-4.15,2.18-6.88,0-2.41-.68-4.45-2.04-6.13-1.36-1.67-3.15-2.93-5.35-3.75"/>
  <path class="cls-1" d="M118.02,8.26c-1.63-2.69-3.89-4.74-6.78-6.15-2.9-1.41-6.24-2.11-10.02-2.11s-7.13.7-10.02,2.11c-2.89,1.41-5.15,3.46-6.76,6.15s-2.42,5.9-2.42,9.62c0,3.41.78,6.45,2.35,9.11s3.79,4.73,6.69,6.19c2.89,1.47,6.28,2.21,10.16,2.21s7.27-.74,10.16-2.21c2.89-1.47,5.13-3.54,6.71-6.19,1.58-2.66,2.37-5.7,2.37-9.11,0-3.72-.81-6.93-2.44-9.62M111.64,24.48c-1.1,1.74-2.55,3-4.37,3.8s-3.83,1.2-6.06,1.2-4.24-.4-6.05-1.2c-1.82-.8-3.26-2.07-4.34-3.8-1.08-1.74-1.62-3.94-1.62-6.6s.54-4.98,1.62-6.78c1.08-1.8,2.54-3.12,4.37-3.97s3.84-1.27,6.03-1.27,4.24.42,6.06,1.27c1.81.85,3.27,2.17,4.37,3.97,1.1,1.8,1.64,4.06,1.64,6.78s-.55,4.86-1.64,6.6"/>
  <g>
    <path class="cls-2" d="M223.8,79.9c-5.4-2.43-11.39-3.78-17.69-3.78s-12.31,1.35-17.71,3.78v-35.4h35.4v35.4h0Z"/>
    <g>
      <path class="cls-3" d="M192.65,55.21c-1.67,0-1.8,1.69-1.8,1.69h-.79v-2.49h6.19s.05,1.93-1.78,3.97c0,0-1.74,2.03-1.79,2.91h1c1.44,0,1.59-1.68,1.59-1.68h.83v2.51h-6.33s-.24-1.89,1.97-4.2c0,0,1.35-1.5,1.67-2.71h-.76Z"/>
      <path class="cls-3" d="M208.42,62.11v-.81h-.19c-.34,0-.61-.28-.61-.61v-4.82c0-.34.28-.61.61-.61h.19v-.81h-4.11v.81h.19c.35,0,.63.28.63.61v4.82c0,.34-.28.61-.63.61h-.19v.81h4.11Z"/>
      <path class="cls-3" d="M203.46,62.12v-2.51h-.83s-.15,1.68-1.59,1.68h-.83v-2.63h.29c.35,0,.63.28.63.63v.31h.81v-2.69h-.81v.31c0,.35-.28.63-.63.63h-.29v-2.63h.83c1.44,0,1.59,1.68,1.59,1.68h.83v-2.51h-6.53v.83h.19c.34,0,.61.28.61.61v4.82c0,.34-.28.61-.61.61h-.19v.81h6.53v.04h0Z"/>
      <path class="cls-3" d="M212.74,55.21c1.67,0,1.79,1.69,1.79,1.69h.8v-2.49h-5.93s-.94,1.23,1.52,3.97c0,0,1.74,2.03,1.78,2.91h-1c-1.44,0-1.59-1.68-1.59-1.68h-.83v2.51h5.96s1.09-1.17-1.6-4.2c0,0-1.4-1.45-1.67-2.71h.77Z"/>
      <path class="cls-3" d="M219.66,55.21c1.65,0,1.79,1.69,1.79,1.69h.79v-2.49h-5.91s-.94,1.23,1.52,3.97c0,0,1.74,2.03,1.78,2.91h-1c-1.44,0-1.59-1.68-1.59-1.68h-.83v2.51h5.96s1.08-1.17-1.6-4.2c0,0-1.4-1.45-1.67-2.71h.76Z"/>
    </g>
  </g>
</svg>